<svg width="71" height="17" viewBox="0 0 71 17" fill="none" xmlns="http://www.w3.org/2000/svg">
<path d="M0.04 17V0.439999H11.176V3.104H2.968V7.088H10.456V9.752H2.968V14.336H11.176V17H0.04ZM13.6872 15.896V14.336H21.1032C21.8072 14.336 22.1592 13.992 22.1592 13.304V11.48C22.1592 10.872 21.8872 10.512 21.3432 10.4L16.4712 9.416C14.6152 9.048 13.6872 7.8 13.6872 5.672V4.352C13.6872 1.744 14.9912 0.439999 17.5992 0.439999H23.1912L24.6072 1.544V3.104H17.6712C16.9672 3.104 16.6152 3.448 16.6152 4.136V5.744C16.6152 6.352 16.8872 6.712 17.4312 6.824L22.3032 7.784C24.1592 8.168 25.0872 9.416 25.0872 11.528V13.088C25.0872 15.696 23.7832 17 21.1752 17H15.1032L13.6872 15.896ZM28.4463 17V0.439999H36.4143C39.0223 0.439999 40.3263 1.744 40.3263 4.352V7.544C40.3263 10.136 39.0223 11.432 36.4143 11.432H31.3743V17H28.4463ZM31.3743 8.768H36.3423C37.0463 8.768 37.3983 8.416 37.3983 7.712V4.136C37.3983 3.448 37.0463 3.104 36.3423 3.104H31.3743V8.768ZM43.6806 17V0.439999H54.8166V3.104H46.6086V7.088H54.0966V9.752H46.6086V14.336H54.8166V17H43.6806ZM58.0478 17V0.439999H66.0158C68.6238 0.439999 69.9278 1.744 69.9278 4.352V7.064C69.9278 9.08 69.1278 10.304 67.5278 10.736L70.4078 16.376L70.0478 17H67.5518L64.4798 10.952H60.9758V17H58.0478ZM60.9758 8.288H65.9438C66.6478 8.288 66.9998 7.936 66.9998 7.232V4.136C66.9998 3.448 66.6478 3.104 65.9438 3.104H60.9758V8.288Z" fill="white"/>
</svg>
